<svg width="522" height="512" viewBox="0 0 522 512" fill="none" xmlns="http://www.w3.org/2000/svg">
<path d="M433.062 282.341C436.363 282.341 439.039 285.017 439.039 288.318V457.09C439.039 460.39 436.364 463.066 433.063 463.067H83.5369C80.2364 463.067 77.5605 460.391 77.5603 457.091V346.274C77.5603 346.029 77.7583 345.83 78.0027 345.83H125.967C126.211 345.83 126.409 346.029 126.409 346.274V423.987H390.19V321.42H346.764C346.518 321.42 346.357 321.16 346.468 320.94L365.613 282.647C365.707 282.459 365.899 282.341 366.108 282.341H433.062ZM257.917 48.1115C258.15 47.9633 258.449 47.9628 258.683 48.1105L432.294 157.759L521.357 208.641C521.554 208.753 521.475 209.055 521.248 209.055H439.039V257.461C439.039 257.705 438.841 257.903 438.596 257.903H390.634C390.389 257.903 390.19 257.705 390.19 257.461V180.977L258.594 96.8908C258.414 96.7763 258.185 96.7745 258.004 96.8869L167.93 152.879L126.409 178.689V287.212H269.572C297.489 286.666 302.244 270.869 302.263 262.853V213.953C302.263 204.183 298.355 174.874 263.184 174.874C228.014 174.874 219.221 204.184 219.22 213.953V277.014C219.22 277.258 219.023 277.456 218.778 277.456H175.7C175.456 277.456 175.258 277.258 175.258 277.014V199.299C175.258 169.99 216.127 135.796 263.184 135.796C307.148 135.796 346.227 169.99 346.227 199.299V277.457C346.227 321.427 297.955 321.424 278.189 321.422H277.84L277.838 321.42H219.22V408.904C219.22 409.149 219.023 409.347 218.778 409.347H175.7C175.455 409.347 175.258 409.149 175.258 408.904V321.42H83.5369C80.2363 321.42 77.5603 318.744 77.5603 315.444V209.055H0.221435C-0.00420086 209.055 -0.0848916 208.756 0.110107 208.642L58.0212 174.874L257.917 48.1115Z" fill="url(#paint0_linear_2809_6726)"/>
<defs>
<linearGradient id="paint0_linear_2809_6726" x1="260.735" y1="48" x2="260.735" y2="463.067" gradientUnits="userSpaceOnUse">
<stop stop-color="#FD6303"/>
<stop offset="0.42" stop-color="#FD9903"/>
<stop offset="1" stop-color="#14A607"/>
</linearGradient>
</defs>
</svg>
